<svg width="164" height="122" viewBox="0 0 164 122" fill="none" xmlns="http://www.w3.org/2000/svg">
<path d="M2.88 47.032V15.88C2.88 15.272 3.152 14.792 3.696 14.44C4.24 14.088 4.88 13.912 5.616 13.912H22.368C23.008 13.912 23.488 14.184 23.808 14.728C24.128 15.24 24.288 15.864 24.288 16.6C24.288 17.368 24.112 18.024 23.76 18.568C23.44 19.112 22.976 19.384 22.368 19.384H9.12V28.984H16.464C17.072 28.984 17.536 29.224 17.856 29.704C18.208 30.184 18.384 30.776 18.384 31.48C18.384 32.12 18.208 32.68 17.856 33.16C17.536 33.64 17.072 33.88 16.464 33.88H9.12V47.032C9.12 47.64 8.8 48.12 8.16 48.472C7.552 48.824 6.832 49 6 49C5.136 49 4.4 48.824 3.792 48.472C3.184 48.12 2.88 47.64 2.88 47.032ZM22.6031 47.032V28.12C22.6031 27.544 22.8751 27.08 23.4191 26.728C23.9951 26.376 24.7311 26.2 25.6271 26.2C26.4271 26.2 27.0831 26.376 27.5951 26.728C28.1391 27.08 28.4111 27.544 28.4111 28.12V30.088C28.9231 28.968 29.7231 27.992 30.8111 27.16C31.8991 26.328 33.0671 25.912 34.3151 25.912H35.8031C36.3791 25.912 36.8911 26.184 37.3391 26.728C37.8191 27.272 38.0591 27.896 38.0591 28.6C38.0591 29.336 37.8191 29.976 37.3391 30.52C36.8911 31.064 36.3791 31.336 35.8031 31.336H34.3151C32.8431 31.336 31.5471 31.992 30.4271 33.304C29.3391 34.616 28.7951 36.328 28.7951 38.44V47.032C28.7951 47.512 28.4751 47.96 27.8351 48.376C27.1951 48.792 26.4591 49 25.6271 49C24.7631 49 24.0431 48.808 23.4671 48.424C22.8911 48.008 22.6031 47.544 22.6031 47.032ZM40.3609 18.088C40.3609 17.256 40.6809 16.552 41.3209 15.976C41.9929 15.368 42.8089 15.064 43.7689 15.064C44.6969 15.064 45.4809 15.368 46.1209 15.976C46.7929 16.552 47.1289 17.256 47.1289 18.088C47.1289 18.888 46.7929 19.592 46.1209 20.2C45.4809 20.808 44.6969 21.112 43.7689 21.112C42.8089 21.112 41.9929 20.808 41.3209 20.2C40.6809 19.592 40.3609 18.888 40.3609 18.088ZM40.6969 47.032V28.12C40.6969 27.544 40.9849 27.08 41.5609 26.728C42.1369 26.376 42.8729 26.2 43.7689 26.2C44.6649 26.2 45.4009 26.376 45.9769 26.728C46.5849 27.08 46.8889 27.544 46.8889 28.12V47.032C46.8889 47.512 46.5689 47.96 45.9289 48.376C45.3209 48.792 44.6009 49 43.7689 49C42.9049 49 42.1689 48.808 41.5609 48.424C40.9849 48.008 40.6969 47.544 40.6969 47.032ZM50.8016 39.592V35.512C50.8016 32.888 51.8256 30.632 53.8736 28.744C55.9216 26.856 58.4016 25.912 61.3136 25.912C64.0336 25.912 66.3536 26.776 68.2736 28.504C70.2256 30.2 71.2016 32.344 71.2016 34.936C71.2016 35.896 71.0736 36.696 70.8176 37.336C70.5936 37.944 70.2256 38.376 69.7136 38.632C69.2336 38.888 68.7856 39.048 68.3696 39.112C67.9536 39.176 67.4096 39.208 66.7376 39.208H56.9936V39.928C56.9936 41.304 57.5056 42.424 58.5296 43.288C59.5536 44.12 60.9136 44.536 62.6096 44.536C63.8256 44.536 65.0256 44.232 66.2096 43.624C67.3936 43.016 68.1616 42.712 68.5136 42.712C69.1856 42.712 69.7456 43.032 70.1936 43.672C70.6416 44.28 70.8656 44.872 70.8656 45.448C70.8656 46.344 70.0496 47.24 68.4176 48.136C66.8176 49 64.8176 49.432 62.4176 49.432C58.9936 49.432 56.1936 48.536 54.0176 46.744C51.8736 44.92 50.8016 42.536 50.8016 39.592ZM56.9936 35.56H64.0016C64.5136 35.56 64.8656 35.48 65.0576 35.32C65.2816 35.128 65.3936 34.776 65.3936 34.264C65.3936 33.144 64.9776 32.232 64.1456 31.528C63.3456 30.824 62.3536 30.472 61.1696 30.472C60.0496 30.472 59.0736 30.824 58.2416 31.528C57.4096 32.2 56.9936 33.096 56.9936 34.216V35.56ZM74.9156 47.032V28.12C74.9156 27.544 75.1876 27.08 75.7316 26.728C76.3076 26.376 77.0596 26.2 77.9876 26.2C78.7556 26.2 79.3956 26.376 79.9076 26.728C80.4516 27.08 80.7236 27.544 80.7236 28.12V29.56C81.2356 28.536 82.0516 27.672 83.1716 26.968C84.3236 26.264 85.6516 25.912 87.1556 25.912C89.3636 25.912 91.2836 26.872 92.9156 28.792C94.5796 30.712 95.4116 33 95.4116 35.656V47.032C95.4116 47.64 95.0916 48.12 94.4516 48.472C93.8436 48.824 93.1236 49 92.2916 49C91.4916 49 90.7716 48.824 90.1316 48.472C89.5236 48.12 89.2196 47.64 89.2196 47.032V35.656C89.2196 34.536 88.8036 33.544 87.9716 32.68C87.1396 31.784 86.1636 31.336 85.0436 31.336C83.9876 31.336 83.0596 31.736 82.2596 32.536C81.4916 33.336 81.1076 34.376 81.1076 35.656V47.032C81.1076 47.512 80.7876 47.96 80.1476 48.376C79.5396 48.792 78.8196 49 77.9876 49C77.1236 49 76.3876 48.808 75.7796 48.424C75.2036 48.008 74.9156 47.544 74.9156 47.032ZM99.2246 39.592V35.656C99.2246 33 100.057 30.712 101.721 28.792C103.417 26.872 105.433 25.912 107.769 25.912C109.177 25.912 110.409 26.264 111.465 26.968C112.553 27.672 113.385 28.536 113.961 29.56V14.824C113.961 14.248 114.249 13.784 114.825 13.432C115.433 13.08 116.185 12.904 117.081 12.904C117.977 12.904 118.713 13.08 119.289 13.432C119.865 13.784 120.153 14.248 120.153 14.824V47.032C120.153 47.544 119.849 48.008 119.241 48.424C118.665 48.808 117.945 49 117.081 49C116.345 49 115.689 48.792 115.113 48.376C114.569 47.96 114.297 47.512 114.297 47.032V45.64C113.785 46.664 112.905 47.56 111.657 48.328C110.441 49.064 109.097 49.432 107.625 49.432C105.417 49.432 103.465 48.44 101.769 46.456C100.073 44.472 99.2246 42.184 99.2246 39.592ZM105.417 39.592C105.417 40.712 105.833 41.736 106.665 42.664C107.497 43.56 108.473 44.008 109.593 44.008C110.713 44.008 111.721 43.576 112.617 42.712C113.513 41.816 113.961 41.064 113.961 40.456V35.656C113.961 34.376 113.513 33.336 112.617 32.536C111.753 31.736 110.761 31.336 109.641 31.336C108.489 31.336 107.497 31.784 106.665 32.68C105.833 33.544 105.417 34.536 105.417 35.656V39.592ZM123.682 45.304C123.682 44.728 123.89 44.136 124.306 43.528C124.722 42.888 125.202 42.568 125.746 42.568C126.098 42.568 126.53 42.744 127.042 43.096C127.586 43.448 128.29 43.816 129.154 44.2C130.018 44.552 131.042 44.728 132.226 44.728C134.562 44.728 135.73 44.04 135.73 42.664C135.73 41.896 135.33 41.288 134.53 40.84C133.762 40.392 132.818 40.024 131.698 39.736C130.61 39.448 129.506 39.112 128.386 38.728C127.266 38.312 126.306 37.64 125.506 36.712C124.738 35.752 124.354 34.536 124.354 33.064C124.354 31.112 125.042 29.432 126.418 28.024C127.794 26.616 129.97 25.912 132.946 25.912C134.93 25.912 136.69 26.216 138.226 26.824C139.794 27.432 140.578 28.168 140.578 29.032C140.578 29.576 140.354 30.216 139.906 30.952C139.49 31.656 138.962 32.008 138.322 32.008C138.066 32.008 137.362 31.784 136.21 31.336C135.09 30.856 134.034 30.616 133.042 30.616C131.954 30.616 131.122 30.84 130.546 31.288C129.97 31.736 129.682 32.232 129.682 32.776C129.682 33.32 129.97 33.768 130.546 34.12C131.122 34.472 131.826 34.744 132.658 34.936C133.522 35.128 134.45 35.4 135.442 35.752C136.434 36.072 137.346 36.456 138.178 36.904C139.042 37.352 139.762 38.056 140.338 39.016C140.914 39.944 141.202 41.08 141.202 42.424C141.202 44.6 140.418 46.312 138.85 47.56C137.314 48.808 135.154 49.432 132.37 49.432C129.97 49.432 127.922 49.016 126.226 48.184C124.53 47.352 123.682 46.392 123.682 45.304ZM2.88 108.032V76.88C2.88 76.272 3.152 75.792 3.696 75.44C4.24 75.088 4.88 74.912 5.616 74.912H22.704C23.344 74.912 23.824 75.184 24.144 75.728C24.496 76.272 24.672 76.896 24.672 77.6C24.672 78.368 24.496 79.024 24.144 79.568C23.792 80.112 23.312 80.384 22.704 80.384H9.12V89.984H16.416C17.024 89.984 17.504 90.24 17.856 90.752C18.208 91.232 18.384 91.808 18.384 92.48C18.384 93.088 18.208 93.648 17.856 94.16C17.536 94.64 17.056 94.88 16.416 94.88H9.12V104.528H22.704C23.312 104.528 23.792 104.8 24.144 105.344C24.496 105.888 24.672 106.544 24.672 107.312C24.672 108.016 24.496 108.64 24.144 109.184C23.824 109.728 23.344 110 22.704 110H5.616C4.88 110 4.24 109.824 3.696 109.472C3.152 109.12 2.88 108.64 2.88 108.032ZM22.8818 89.552C22.8818 88.88 23.3458 88.272 24.2738 87.728C25.2338 87.184 26.1458 86.912 27.0098 86.912C27.9378 86.912 28.5458 87.264 28.8338 87.968L34.1618 101.888L39.4898 88.064C39.7778 87.296 40.3698 86.912 41.2658 86.912C42.0338 86.912 42.9138 87.2 43.9058 87.776C44.8978 88.32 45.3938 88.928 45.3938 89.6C45.3938 89.888 45.3298 90.16 45.2018 90.416L36.9938 109.424C36.6418 110.16 35.6978 110.528 34.1618 110.528C32.6258 110.528 31.6978 110.16 31.3778 109.424L23.1218 90.416C22.9618 90.192 22.8818 89.904 22.8818 89.552ZM47.0516 100.592V96.512C47.0516 93.888 48.0756 91.632 50.1236 89.744C52.1716 87.856 54.6516 86.912 57.5636 86.912C60.2836 86.912 62.6036 87.776 64.5236 89.504C66.4756 91.2 67.4516 93.344 67.4516 95.936C67.4516 96.896 67.3236 97.696 67.0676 98.336C66.8436 98.944 66.4756 99.376 65.9636 99.632C65.4836 99.888 65.0356 100.048 64.6196 100.112C64.2036 100.176 63.6596 100.208 62.9876 100.208H53.2436V100.928C53.2436 102.304 53.7556 103.424 54.7796 104.288C55.8036 105.12 57.1636 105.536 58.8596 105.536C60.0756 105.536 61.2756 105.232 62.4596 104.624C63.6436 104.016 64.4116 103.712 64.7636 103.712C65.4356 103.712 65.9956 104.032 66.4436 104.672C66.8916 105.28 67.1156 105.872 67.1156 106.448C67.1156 107.344 66.2996 108.24 64.6676 109.136C63.0676 110 61.0676 110.432 58.6676 110.432C55.2436 110.432 52.4436 109.536 50.2676 107.744C48.1236 105.92 47.0516 103.536 47.0516 100.592ZM53.2436 96.56H60.2516C60.7636 96.56 61.1156 96.48 61.3076 96.32C61.5316 96.128 61.6436 95.776 61.6436 95.264C61.6436 94.144 61.2276 93.232 60.3956 92.528C59.5956 91.824 58.6036 91.472 57.4196 91.472C56.2996 91.472 55.3236 91.824 54.4916 92.528C53.6596 93.2 53.2436 94.096 53.2436 95.216V96.56ZM71.1656 108.032V89.12C71.1656 88.544 71.4376 88.08 71.9816 87.728C72.5576 87.376 73.3096 87.2 74.2376 87.2C75.0056 87.2 75.6456 87.376 76.1576 87.728C76.7016 88.08 76.9736 88.544 76.9736 89.12V90.56C77.4856 89.536 78.3016 88.672 79.4216 87.968C80.5736 87.264 81.9016 86.912 83.4056 86.912C85.6136 86.912 87.5336 87.872 89.1656 89.792C90.8296 91.712 91.6616 94 91.6616 96.656V108.032C91.6616 108.64 91.3416 109.12 90.7016 109.472C90.0936 109.824 89.3736 110 88.5416 110C87.7416 110 87.0216 109.824 86.3816 109.472C85.7736 109.12 85.4696 108.64 85.4696 108.032V96.656C85.4696 95.536 85.0536 94.544 84.2216 93.68C83.3896 92.784 82.4136 92.336 81.2936 92.336C80.2376 92.336 79.3096 92.736 78.5096 93.536C77.7416 94.336 77.3576 95.376 77.3576 96.656V108.032C77.3576 108.512 77.0376 108.96 76.3976 109.376C75.7896 109.792 75.0696 110 74.2376 110C73.3736 110 72.6376 109.808 72.0296 109.424C71.4536 109.008 71.1656 108.544 71.1656 108.032ZM96.2426 102.224V78.944C96.2426 78.4 96.5626 77.952 97.2026 77.6C97.8426 77.216 98.5466 77.024 99.3146 77.024C100.147 77.024 100.867 77.216 101.475 77.6C102.115 77.952 102.435 78.4 102.435 78.944V87.2H108.099C108.579 87.2 108.963 87.424 109.251 87.872C109.539 88.32 109.683 88.848 109.683 89.456C109.683 90.064 109.539 90.592 109.251 91.04C108.963 91.488 108.579 91.712 108.099 91.712H102.435V102.224C102.435 103.152 102.627 103.808 103.011 104.192C103.427 104.576 104.131 104.768 105.123 104.768H106.995C107.827 104.768 108.467 105.024 108.915 105.536C109.395 106.048 109.635 106.656 109.635 107.36C109.635 108.096 109.395 108.72 108.915 109.232C108.467 109.744 107.827 110 106.995 110H105.123C99.2026 110 96.2426 107.408 96.2426 102.224Z" fill="white"/>
<path d="M142.5 72C148.202 72 153.671 74.2576 157.703 78.2763C161.735 82.2949 164 87.7454 164 93.4286C164 102.3 157.216 111.595 143.933 121.524C143.52 121.833 143.017 122 142.5 122C141.983 122 141.48 121.833 141.067 121.524C127.784 111.595 121 102.3 121 93.4286C121 87.7454 123.265 82.2949 127.297 78.2763C131.329 74.2576 136.798 72 142.5 72ZM142.5 86.2857C140.599 86.2857 138.776 87.0383 137.432 88.3778C136.088 89.7174 135.333 91.5342 135.333 93.4286C135.333 95.323 136.088 97.1398 137.432 98.4793C138.776 99.8189 140.599 100.571 142.5 100.571C144.401 100.571 146.224 99.8189 147.568 98.4793C148.912 97.1398 149.667 95.323 149.667 93.4286C149.667 91.5342 148.912 89.7174 147.568 88.3778C146.224 87.0383 144.401 86.2857 142.5 86.2857Z" fill="white"/>
</svg>
